<?xml version="1.0" encoding="UTF-8"?>
<svg xmlns="http://www.w3.org/2000/svg" viewBox="0 0 200 420" width="200" height="420">
  <!-- model 1: slender pose, long hair -->
  <defs>
    <clipPath id="bodyClip1"><path d="M60 140 C55 200 55 260 60 320 C90 340 110 340 140 320 C145 260 145 200 140 140 Z"/></clipPath>
  </defs>
  <!-- skin -->
  <g fill="#f4d7d0">
    <circle cx="100" cy="60" r="34"/>
    <ellipse cx="100" cy="120" rx="42" ry="18"/>
  </g>
  <!-- long hair -->
  <g>
    <path d="M40 40 C30 70 30 110 44 148 C38 190 42 260 64 300 C82 330 94 342 100 344 C106 342 118 330 136 300 C158 260 162 190 156 148 C170 110 170 70 160 40 C132 36 120 46 100 46 C80 46 68 36 40 40 Z" fill="#3b2f2f"/>
  </g>
  <!-- body -->
  <g fill="#eef2fb" clip-path="url(#bodyClip1)">
    <path d="M60 140 C55 200 55 260 60 320 C90 340 110 340 140 320 C145 260 145 200 140 140 Z" fill="#eef2fb" stroke="#dce8ff"/>
  </g>
  <!-- arms long-hair pose (one hand on hip) -->
  <g fill="#f4d7d0">
    <path d="M48 170 C36 190 34 220 48 240 C56 250 70 248 78 238"/>
    <path d="M152 170 C162 190 164 220 152 240 C144 250 130 248 122 238"/>
  </g>
  <!-- legs -->
  <g fill="#e6e6e6">
    <rect x="82" y="300" width="12" height="70" rx="6" fill="#e6e6e6"/>
    <rect x="106" y="300" width="12" height="70" rx="6" fill="#e6e6e6"/>
  </g>
  <!-- subtle face features -->
  <g fill="#6b4b4b">
    <circle cx="88" cy="58" r="3" fill="#2b2b2b"/>
    <circle cx="112" cy="58" r="3" fill="#2b2b2b"/>
    <path d="M92 72 Q100 78 108 72" stroke="#b45" stroke-width="1.5" fill="none" stroke-linecap="round"/>
  </g>
</svg>